<?xml version="1.0" encoding="UTF-8" standalone="no"?>
<svg
   x="0px"
   y="0px"
   width="176.47099"
   height="84.769997"
   viewBox="0 0 176.47099 84.769997"
   enable-background="new 0 0 201.004 105.238"
   xml:space="preserve">
<g
   id="g20"
   transform="translate(-10.781,-11.196)">
	<path
   fill="#ffffff"
   d="m 13.717,95.813 h -2.936 l 9.277,-21.855 h 3.133 l 9.323,21.855 h -3.133 l -2.827,-6.877 h -7.229 l 0.78,-2.293 h 5.502 L 21.525,76.74 Z"
   id="path2" />
	<path
   fill="#ffffff"
   d="M 38.781,73.958 V 95.813 H 35.953 V 73.958 Z"
   id="path4" />
	<path
   fill="#ffffff"
   d="m 69.271,73.958 v 2.293 H 57.809 v 7.336 H 68.737 V 85.88 H 57.809 v 7.641 H 69.5 v 2.293 H 54.98 V 73.958 Z"
   id="path6" />
	<path
   fill="#ffffff"
   d="M 80.168,84.886 71.564,73.958 h 3.438 l 6.878,8.742 6.878,-8.742 h 3.438 l -8.59,10.928 8.59,10.928 h -3.438 l -6.878,-8.742 -6.878,8.742 h -3.438 z"
   id="path8" />
	<path
   fill="#ffffff"
   d="M 95.328,95.813 V 73.958 h 8.865 c 4.462,0 6.693,1.952 6.693,5.854 0,4.249 -3.052,6.843 -9.154,7.779 l -0.581,-2.384 c 4.483,-0.662 6.725,-2.42 6.725,-5.272 0,-2.425 -1.314,-3.638 -3.943,-3.638 h -5.776 v 19.517 h -2.829 z"
   id="path10" />
	<path
   fill="#ffffff"
   d="m 128.921,73.958 v 2.293 h -11.462 v 7.336 h 10.928 v 2.293 h -10.928 v 7.641 h 11.691 v 2.293 H 114.63 V 73.958 Z"
   id="path12" />
	<path
   fill="#ffffff"
   d="M 133.429,95.813 V 73.958 h 9.323 c 4.157,0 6.235,1.748 6.235,5.242 0,2.843 -2.032,4.947 -6.098,6.313 l 7.504,10.301 h -3.729 l -6.953,-9.827 v -1.85 c 4.177,-0.662 6.266,-2.267 6.266,-4.813 0,-2.018 -1.161,-3.026 -3.484,-3.026 h -6.235 v 19.517 h -2.829 z"
   id="path14" />
	<path
   fill="#ffffff"
   d="m 168.123,73.958 v 2.293 h -6.878 v 19.563 h -2.827 V 76.251 h -6.878 v -2.293 z"
   id="path16" />
	<path
   fill="#ffffff"
   d="m 171.18,95.05 v -2.599 c 2.292,0.815 4.768,1.223 7.427,1.223 3.76,0 5.64,-1.376 5.64,-4.126 0,-2.344 -1.386,-3.516 -4.157,-3.516 h -2.812 c -4.575,0 -6.862,-1.986 -6.862,-5.961 0,-4.177 2.929,-6.266 8.788,-6.266 2.547,0 4.916,0.306 7.106,0.917 v 2.599 c -2.19,-0.815 -4.56,-1.223 -7.106,-1.223 -3.974,0 -5.961,1.324 -5.961,3.973 0,2.344 1.345,3.516 4.035,3.516 h 2.812 c 4.656,0 6.985,1.986 6.985,5.961 0,4.279 -2.823,6.418 -8.468,6.418 -2.66,0 -5.135,-0.305 -7.427,-0.916 z"
   id="path18" />
</g>
<g
   id="g30"
   transform="translate(-10.781,-11.196)">
	<path
   fill="#ffffff"
   d="m 20.125,58.597 h -9.017 l 20.12,-47.4 h 9.447 l 20.551,47.4 H 51.779 L 46.377,45.669 H 30.633 l 3.016,-7.623 h 9.547 L 35.737,20.245 Z"
   id="path22" />
	<path
   fill="#ffffff"
   d="m 67.027,58.597 v -47.4 h 9.116 L 92.22,47.161 107.964,11.196 h 8.784 v 47.4 h -8.121 V 25.582 L 95.767,58.597 H 88.276 L 75.148,25.582 v 33.015 z"
   id="path24" />
	<path
   fill="#ffffff"
   d="m 131.565,58.597 h -9.016 l 20.12,-47.4 h 9.446 l 20.552,47.4 h -9.447 l -5.403,-12.928 h -15.744 l 3.017,-7.623 h 9.546 l -7.458,-17.801 z"
   id="path26" />
	<path
   fill="#ffffff"
   d="m 187.252,11.196 v 47.4 h -8.784 v -47.4 z"
   id="path28" />
</g>
<g
   id="g40"
   transform="translate(-10.781,-11.196)">
	<path
   fill="#ffffff"
   d="m 20.125,58.597 h -9.017 l 20.12,-47.4 h 9.447 l 20.551,47.4 H 51.779 L 46.377,45.669 H 30.633 l 3.016,-7.623 h 9.547 L 35.737,20.245 Z"
   id="path32" />
	<path
   fill="#ffffff"
   d="m 67.027,58.597 v -47.4 h 9.116 L 92.22,47.161 107.964,11.196 h 8.784 v 47.4 h -8.121 V 25.582 L 95.767,58.597 H 88.276 L 75.148,25.582 v 33.015 z"
   id="path34" />
	<path
   fill="#ffffff"
   d="m 131.565,58.597 h -9.016 l 20.12,-47.4 h 9.446 l 20.552,47.4 h -9.447 l -5.403,-12.928 h -15.744 l 3.017,-7.623 h 9.546 l -7.458,-17.801 z"
   id="path36" />
	<path
   fill="#ffffff"
   d="m 187.252,11.196 v 47.4 h -8.784 v -47.4 z"
   id="path38" />
</g>
</svg>
